<?xml version="1.0" standalone="no"?>
<!DOCTYPE svg PUBLIC "-//W3C//DTD SVG 20010904//EN"
 "http://www.w3.org/TR/2001/REC-SVG-20010904/DTD/svg10.dtd">
<svg version="1.0" xmlns="http://www.w3.org/2000/svg"
 width="236.000000pt" height="236.000000pt" viewBox="0 0 236.000000 236.000000"
 preserveAspectRatio="xMidYMid meet">

<g transform="translate(0.000000,236.000000) scale(0.100000,-0.100000)"
fill="#000000" stroke="none">
<path d="M940 2186 c-41 -8 -95 -19 -120 -26 -71 -19 -210 -71 -210 -78 0 -4
26 -25 58 -47 70 -48 210 -181 247 -234 l26 -39 43 19 c24 10 88 31 142 46 87
24 117 27 249 28 115 0 166 -4 220 -19 235 -63 409 -209 521 -438 35 -72 35
-73 29 -28 -18 115 -94 301 -168 409 -45 67 -163 187 -233 237 -83 60 -211
119 -324 149 -118 33 -358 43 -480 21z m385 -111 c49 -9 118 -28 154 -42 62
-25 166 -82 159 -88 -2 -2 -32 4 -68 11 -145 32 -406 15 -539 -35 l-46 -17
-67 70 c-38 39 -68 72 -68 73 0 3 103 23 165 32 96 14 216 12 310 -4z"/>
<path d="M479 1910 c-157 -138 -279 -342 -325 -545 -26 -114 -24 -300 4 -418
63 -257 203 -475 421 -655 35 -29 65 -51 68 -48 3 3 9 42 14 88 12 100 40 218
72 297 l24 59 -48 37 c-110 84 -239 246 -295 372 -91 203 -97 437 -17 626 31
71 74 145 116 200 16 20 27 37 25 37 -1 0 -28 -22 -59 -50z m-125 -945 c51
-95 138 -207 206 -267 l56 -49 -23 -67 c-12 -37 -23 -77 -23 -89 0 -13 -4 -23
-9 -23 -16 0 -99 100 -161 193 -104 156 -150 298 -149 457 l0 85 32 -85 c18
-47 50 -116 71 -155z"/>
<path d="M1170 1518 c0 -24 -99 -219 -153 -301 -29 -45 -84 -120 -122 -166
-38 -47 -61 -81 -51 -78 10 4 72 12 137 19 128 12 316 1 447 -26 65 -14 74
-10 43 18 -64 58 -206 315 -258 463 -25 75 -43 103 -43 71z m20 -278 c7 -17
28 -56 47 -87 18 -31 32 -57 31 -59 -2 -1 -48 0 -104 3 l-101 6 51 83 c28 46
54 83 57 84 4 0 12 -14 19 -30z"/>
<path d="M2144 1164 c-86 -40 -228 -83 -305 -91 l-57 -6 -12 -76 c-49 -304
-225 -562 -463 -680 -129 -64 -188 -76 -366 -76 l-153 0 73 -23 c256 -78 521
-67 737 33 265 123 471 367 570 676 17 52 36 127 42 165 6 38 13 79 16 92 6
28 4 27 -82 -14z m-105 -260 c-17 -49 -43 -111 -57 -139 -75 -150 -214 -301
-333 -365 l-63 -33 28 34 c65 80 119 157 152 216 43 75 99 229 109 296 6 41
11 48 34 52 14 3 55 13 91 23 36 10 66 15 68 11 1 -3 -12 -46 -29 -95z"/>
</g>
</svg>
